<!DOCTYPE svg PUBLIC "-//W3C//DTD SVG 1.1//EN" "http://www.w3.org/Graphics/SVG/1.1/DTD/svg11.dtd">
<!-- Uploaded to: SVG Repo, www.svgrepo.com, Transformed by: SVG Repo Mixer Tools -->
<svg version="1.1" id="Uploaded to svgrepo.com" xmlns="http://www.w3.org/2000/svg" xmlns:xlink="http://www.w3.org/1999/xlink" width="800px" height="800px" viewBox="0 0 32.00 32.00" xml:space="preserve" fill="#ffffff" transform="rotate(90)matrix(1, 0, 0, -1, 0, 0)" stroke="#ffffff" stroke-width="0.8320000000000001">
<g id="SVGRepo_bgCarrier" stroke-width="0"/>
<g id="SVGRepo_tracerCarrier" stroke-linecap="round" stroke-linejoin="round"/>
<g id="SVGRepo_iconCarrier"> <style type="text/css"> .isometric_een{fill:#f73817;} .isometric_twee{fill:#f6ce61;} .isometric_elf{fill:#ffcd48;} .isometric_twaalf{fill:#000000;} .isometric_dertien{fill:#000000;} .st0{fill:#F28103;} .st1{fill:#7BD6C4;} .st2{fill:#BE1E2D;} .st3{fill:#F05A28;} .st4{fill:#F29227;} .st5{fill:#FF7344;} .st6{fill:#AD9A74;} .st7{fill:none;} .st8{fill:#F2D76C;} .st9{fill:#ffcd48;} .st10{fill:#000000;} </style> <g> <path class="isometric_twee" d="M12.169,20.57c-2.491-1.111-4.435-2.539-6.167-4.355c0.053,2.489,1.021,4.963,2.921,6.863 c1.582,1.582,3.564,2.512,5.62,2.813c0-0.004-0.002-0.009-0.002-0.013C12.024,25.519,11.423,23.085,12.169,20.57z"/> <path class="isometric_een" d="M12.169,20.57c1.097-3.693,4.89-7.438,8.603-8.433c2.533-0.679,4.372,0.098,5.015,1.811 c-0.384-1.84-1.285-3.593-2.713-5.022c-3.908-3.908-10.244-3.908-14.151,0c-2.008,2.008-2.976,4.657-2.921,7.288 C7.732,18.028,9.675,19.458,12.169,20.57z"/> <path class="isometric_twaalf" d="M15.749,21.765c-1.222-0.28-2.419-0.678-3.58-1.196c-0.709,2.391-0.226,4.649,2.048,5.274 c2.298,0.414,4.772,0.002,6.86-1.231C17.509,26.705,14.759,25.205,15.749,21.765z"/> <rect x="25.787" y="13.948" class="isometric_elf" width="0" height="0"/> <path class="isometric_elf" d="M21.861,15.744c2.683-0.719,4.278,0.86,3.564,3.526c-0.058,0.216-0.149,0.431-0.233,0.647 c0.58-1.372,0.852-2.845,0.794-4.311c-0.001,0-0.002,0-0.003,0.001c-0.023-0.556-0.082-1.11-0.196-1.657l0-0.001 c-0.642-1.712-2.482-2.489-5.015-1.811c-3.713,0.995-7.507,4.739-8.603,8.433c1.16,0.517,2.358,0.916,3.58,1.196 C16.507,19.134,19.214,16.453,21.861,15.744z"/> <path class="isometric_dertien" d="M21.861,15.744c-2.647,0.709-5.354,3.389-6.112,6.021c-0.805,2.798,0.862,4.347,3.525,3.633 c2.698-0.723,5.461-3.554,6.151-6.129C26.139,16.604,24.544,15.025,21.861,15.744z"/> </g> </g>
</svg>